<?xml version="1.0" standalone="no"?>
<!DOCTYPE svg PUBLIC "-//W3C//DTD SVG 20010904//EN"
 "http://www.w3.org/TR/2001/REC-SVG-20010904/DTD/svg10.dtd">
<svg version="1.0" xmlns="http://www.w3.org/2000/svg"
 width="16.000000pt" height="16.000000pt" viewBox="0 0 16.000000 16.000000"
 preserveAspectRatio="xMidYMid meet">
<metadata>
Created by potrace 1.11, written by Peter Selinger 2001-2013
</metadata>
<g transform="translate(0.000000,16.000000) scale(0.022857,-0.022857)"
fill="#000000" stroke="none">
<path d="M137 533 c-2 -12 -2 -25 1 -28 10 -10 42 -5 43 8 0 6 2 19 4 28 2 10
-5 15 -20 15 -16 0 -25 -7 -28 -23z"/>
<path d="M199 545 c0 -5 -2 -17 -4 -26 -2 -12 4 -16 24 -15 25 1 27 6 22 45
-1 13 -41 9 -42 -4z"/>
<path d="M437 552 c-2 -4 -3 -16 -3 -27 1 -27 46 -35 46 -8 1 17 1 17 11 1 5
-10 19 -18 30 -18 16 0 20 6 17 27 -3 26 -32 41 -44 22 -3 -5 -11 -6 -17 -2
-17 10 -36 13 -40 5z"/>
<path d="M138 484 c-14 -13 6 -44 27 -44 17 0 23 6 23 25 0 19 -6 25 -23 25
-12 0 -24 -3 -27 -6z"/>
<path d="M198 478 c-8 -21 2 -38 23 -38 14 0 19 7 19 25 0 18 -5 25 -19 25
-10 0 -21 -6 -23 -12z"/>
<path d="M259 488 c-1 -2 -3 -13 -4 -25 -2 -18 3 -23 20 -23 21 0 40 31 27 44
-5 6 -41 8 -43 4z"/>
<path d="M374 475 c-8 -20 4 -35 27 -35 14 0 19 7 19 25 0 18 -5 25 -20 25
-11 0 -23 -7 -26 -15z"/>
<path d="M434 468 c2 -14 11 -24 24 -26 18 -3 22 2 22 22 0 21 -5 26 -25 26
-20 0 -24 -4 -21 -22z"/>
<path d="M492 468 c2 -15 11 -24 26 -26 18 -3 22 1 22 22 0 21 -5 26 -26 26
-21 0 -25 -4 -22 -22z"/>
<path d="M138 406 c-4 -18 0 -26 13 -29 22 -6 43 17 35 38 -9 25 -43 18 -48
-9z"/>
<path d="M203 413 c-3 -10 -8 -21 -10 -25 -2 -5 9 -8 25 -8 24 0 28 4 27 23
-2 27 -33 35 -42 10z"/>
<path d="M263 419 c-17 -17 -4 -39 22 -39 18 0 21 4 17 25 -5 27 -21 32 -39
14z"/>
<path d="M314 415 c-8 -19 3 -35 25 -35 25 0 32 10 20 31 -12 23 -37 25 -45 4z"/>
<path d="M371 409 c4 -9 5 -19 2 -23 -3 -3 6 -6 20 -6 22 0 27 5 27 25 0 21
-4 24 -29 22 -23 -2 -27 -5 -20 -18z"/>
<path d="M435 421 c-3 -2 -5 -13 -5 -23 0 -13 7 -18 25 -18 20 0 25 5 25 24 0
19 -5 24 -20 23 -12 -1 -23 -3 -25 -6z"/>
<path d="M490 405 c0 -28 7 -34 31 -28 12 3 19 14 19 28 0 17 -6 23 -25 23
-19 0 -25 -6 -25 -23z"/>
<path d="M203 357 c-12 -19 -10 -32 7 -38 23 -9 37 0 35 23 -2 23 -30 33 -42
15z"/>
<path d="M258 353 c-12 -15 -3 -29 24 -35 17 -3 18 -2 18 30 0 22 -25 25 -42
5z"/>
<path d="M319 359 c-18 -11 -1 -41 24 -45 17 -2 18 0 21 33 1 18 -24 25 -45
12z"/>
<path d="M379 362 c0 -4 -2 -14 -4 -24 -3 -16 28 -32 39 -20 15 14 5 48 -14
49 -11 1 -20 -1 -21 -5z"/>
<path d="M439 367 c-9 -23 -6 -46 7 -51 22 -8 34 1 34 27 0 16 -6 23 -20 24
-11 1 -20 1 -21 0z"/>
<path d="M256 287 c-7 -28 1 -37 26 -33 30 4 32 43 2 49 -16 3 -24 -2 -28 -16z"/>
<path d="M384 302 c-19 -13 -10 -45 14 -48 18 -3 22 1 22 20 0 24 -19 39 -36
28z"/>
<path d="M496 302 c-3 -3 -6 -16 -6 -29 0 -18 5 -22 23 -19 29 4 36 41 8 49
-11 2 -22 2 -25 -1z"/>
<path d="M137 279 c-3 -12 0 -22 9 -26 23 -8 43 4 41 26 -2 29 -43 29 -50 0z"/>
<path d="M198 294 c-3 -3 -4 -14 -1 -24 7 -26 40 -21 46 7 3 18 0 23 -18 23
-12 0 -24 -3 -27 -6z"/>
<path d="M430 288 c0 -23 18 -41 34 -35 9 4 16 16 16 27 0 15 -7 20 -25 20
-14 0 -25 -6 -25 -12z"/>
<path d="M140 215 c0 -19 5 -25 23 -25 18 0 23 6 23 25 0 19 -5 25 -23 25 -18
0 -23 -6 -23 -25z"/>
<path d="M197 233 c-9 -20 0 -38 21 -41 12 -2 22 0 23 5 0 4 2 16 4 26 2 12
-3 17 -20 17 -13 0 -26 -3 -28 -7z"/>
<path d="M434 225 c-8 -20 4 -35 27 -35 14 0 19 7 19 25 0 18 -5 25 -20 25
-11 0 -23 -7 -26 -15z"/>
<path d="M490 215 c0 -20 5 -25 25 -25 20 0 25 5 25 25 0 20 -5 25 -25 25 -20
0 -25 -5 -25 -25z"/>
<path d="M83 174 c-8 -22 4 -43 24 -40 11 2 19 13 21 27 2 19 -2 25 -18 26
-12 1 -24 -5 -27 -13z"/>
<path d="M552 163 c2 -19 9 -27 26 -28 19 -1 22 3 20 23 -2 17 -10 26 -26 29
-20 3 -23 -1 -20 -24z"/>
</g>
</svg>
